<svg xmlns="http://www.w3.org/2000/svg" version="1.1" xmlns:xlink="http://www.w3.org/1999/xlink" xmlns:svgjs="http://svgjs.dev/svgjs" width="2000" height="429" viewBox="0 0 2000 429"><g transform="matrix(1,0,0,1,-1.2121212121210192,-1.2343576977544046)"><svg viewBox="0 0 396 85" data-background-color="#ffffff" preserveAspectRatio="xMidYMid meet" height="429" width="2000" xmlns="http://www.w3.org/2000/svg" xmlns:xlink="http://www.w3.org/1999/xlink"><g id="tight-bounds" transform="matrix(1,0,0,1,0.23999999999995225,0.2445697070142785)"><svg viewBox="0 0 395.52 84.51086058597143" height="84.51086058597143" width="395.52"><g><svg viewBox="0 0 581.597046457046 124.26999117704328" height="84.51086058597143" width="395.52"><g transform="matrix(1,0,0,1,186.07704645704604,31.75648247174922)"><svg viewBox="0 0 395.52 60.75702623354484" height="60.75702623354484" width="395.52"><g id="textblocktransform"><svg viewBox="0 0 395.52 60.75702623354484" height="60.75702623354484" width="395.52" id="textblock"><g><svg viewBox="0 0 395.52 60.75702623354484" height="60.75702623354484" width="395.52"><g transform="matrix(1,0,0,1,0,0)"><svg width="395.52" viewBox="4.74 -39.11 257.77 39.6" height="60.75702623354484" data-palette-color="#00b8f8"><path d="M23.8-19.82L23.8-19.82Q25.22-19.43 26.6-18.71 27.98-17.99 29.04-16.93 30.1-15.87 30.76-14.48 31.42-13.09 31.42-11.38L31.42-11.38Q31.42-9.33 30.4-7.29 29.37-5.25 27.39-3.63 25.42-2 22.51-1 19.6 0 15.84 0L15.84 0 4.74 0 4.74-35.77 17.02-35.77Q20.19-35.77 22.6-35.14 25-34.52 26.61-33.45 28.22-32.37 29.03-30.96 29.83-29.54 29.83-27.95L29.83-27.95Q29.83-26.66 29.35-25.51 28.86-24.37 28.03-23.36 27.2-22.36 26.1-21.47 25-20.58 23.8-19.82ZM12.08-16.26L12.08-4.81 16.48-4.81Q18.38-4.81 19.78-5.33 21.17-5.86 22.06-6.7 22.95-7.54 23.38-8.63 23.8-9.72 23.8-10.86L23.8-10.86Q23.8-12.28 23.24-13.31 22.68-14.33 21.69-14.99 20.7-15.65 19.31-15.95 17.92-16.26 16.28-16.26L16.28-16.26 12.08-16.26ZM12.08-20.83L19.6-20.83Q20.92-21.73 21.75-23.08 22.58-24.44 22.58-26.12L22.58-26.12Q22.58-27.22 22.14-28.13 21.7-29.03 20.87-29.65 20.04-30.27 18.86-30.62 17.68-30.96 16.19-30.96L16.19-30.96 12.08-30.96 12.08-20.83ZM49.29 0.49L49.29 0.49Q46.09 0.49 43.69-0.54 41.28-1.56 39.66-3.31 38.03-5.05 37.22-7.36 36.4-9.67 36.4-12.23L36.4-12.23Q36.4-15.19 37.46-17.76 38.52-20.34 40.45-22.25 42.38-24.17 45.08-25.27 47.78-26.37 51.05-26.37L51.05-26.37Q54.22-26.37 56.64-25.34 59.06-24.32 60.69-22.57 62.33-20.83 63.16-18.51 63.99-16.19 63.99-13.6L63.99-13.6Q63.99-10.6 62.9-8.02 61.81-5.44 59.87-3.55 57.93-1.66 55.23-0.59 52.54 0.49 49.29 0.49ZM50.34-4.25L50.34-4.25Q51.68-4.25 52.82-4.81 53.95-5.37 54.78-6.45 55.61-7.52 56.06-9.06 56.52-10.6 56.52-12.55L56.52-12.55Q56.52-14.4 56.08-16.06 55.64-17.72 54.81-18.96 53.98-20.19 52.77-20.91 51.56-21.63 50.02-21.63L50.02-21.63Q48.63-21.63 47.5-21.04 46.36-20.46 45.55-19.36 44.75-18.26 44.3-16.71 43.85-15.16 43.85-13.26L43.85-13.26Q43.85-11.33 44.3-9.68 44.75-8.03 45.59-6.82 46.43-5.62 47.63-4.93 48.83-4.25 50.34-4.25ZM81.51 0.49L81.51 0.49Q78.32 0.49 75.91-0.54 73.51-1.56 71.88-3.31 70.26-5.05 69.44-7.36 68.62-9.67 68.62-12.23L68.62-12.23Q68.62-15.19 69.68-17.76 70.75-20.34 72.68-22.25 74.6-24.17 77.3-25.27 80-26.37 83.27-26.37L83.27-26.37Q86.45-26.37 88.86-25.34 91.28-24.32 92.91-22.57 94.55-20.83 95.38-18.51 96.21-16.19 96.21-13.6L96.21-13.6Q96.21-10.6 95.12-8.02 94.04-5.44 92.1-3.55 90.16-1.66 87.46-0.59 84.76 0.49 81.51 0.49ZM82.56-4.25L82.56-4.25Q83.91-4.25 85.04-4.81 86.18-5.37 87.01-6.45 87.84-7.52 88.29-9.06 88.74-10.6 88.74-12.55L88.74-12.55Q88.74-14.4 88.3-16.06 87.86-17.72 87.03-18.96 86.2-20.19 84.99-20.91 83.78-21.63 82.25-21.63L82.25-21.63Q80.85-21.63 79.72-21.04 78.58-20.46 77.78-19.36 76.97-18.26 76.52-16.71 76.07-15.16 76.07-13.26L76.07-13.26Q76.07-11.33 76.52-9.68 76.97-8.03 77.81-6.82 78.66-5.62 79.85-4.93 81.05-4.25 82.56-4.25ZM102.39 0L102.39-39.11 109.59-39.11 109.59 0 102.39 0ZM128.04 0L119.47 0 110.78-13.5 120.45-25.73 127.36-25.73 117.72-14.55 128.04 0ZM139.13 0L132.83 0 135.63-35.77 146.13-35.77 152.63-15.04 154.02-9.08 154.51-9.08 155.95-15.06 162.44-35.77 173.48-35.77 176.28 0 168.5 0 167.1-25.39 166.98-31.4 166.45-31.4 164.98-25.61 157.19-0.71 150.48-0.71 142.64-25.56 141.13-31.4 140.59-31.4 140.52-25.44 139.13 0ZM197.86-3.78L197.86-3.78Q197.18-3.2 196.26-2.45 195.35-1.71 194.25-1.06 193.15-0.42 191.88 0.04 190.61 0.49 189.22 0.49L189.22 0.49Q187.68 0.49 186.43-0.1 185.17-0.68 184.29-1.67 183.41-2.66 182.93-3.98 182.46-5.3 182.46-6.74L182.46-6.74Q182.46-8.47 183.22-10.07 183.97-11.67 185.62-12.89 187.27-14.11 189.9-14.83 192.54-15.55 196.3-15.55L196.3-15.55 197.67-15.55 197.67-17.31Q197.67-19.38 196.36-20.51 195.06-21.63 192.91-21.63L192.91-21.63Q192.03-21.63 191.03-21.42 190.03-21.22 189.04-20.84 188.05-20.46 187.11-19.96 186.17-19.46 185.39-18.87L185.39-18.87 184.95-19.12 183.65-23.73Q186.71-25.22 189.38-25.79 192.05-26.37 194.52-26.37L194.52-26.37Q196.81-26.37 198.73-25.92 200.65-25.46 202-24.5 203.36-23.54 204.11-22 204.87-20.46 204.87-18.29L204.87-18.29 204.87-7.1Q204.87-6.69 204.93-6.25 204.99-5.81 205.19-5.44 205.38-5.08 205.72-4.85 206.07-4.61 206.63-4.61L206.63-4.61Q206.97-4.61 207.38-4.69 207.8-4.76 208.26-4.96L208.26-4.96 208.26-1.68Q206.8-0.66 205.35-0.09 203.89 0.49 202.53 0.49L202.53 0.49Q201.55 0.49 200.82 0.16 200.09-0.17 199.52-0.73 198.96-1.29 198.56-2.08 198.16-2.86 197.86-3.78ZM197.67-6.96L197.67-12.62 196.42-12.62Q194.18-12.62 192.77-12.3 191.37-11.99 190.59-11.41 189.81-10.84 189.51-10.06 189.22-9.28 189.22-8.37L189.22-8.37Q189.22-7.42 189.49-6.71 189.76-6.01 190.23-5.54 190.71-5.08 191.34-4.85 191.98-4.61 192.71-4.61L192.71-4.61Q193.76-4.61 194.97-5.1 196.18-5.59 197.67-6.96L197.67-6.96ZM213.14 0L213.14-25.88 219.13-25.88 220.05-18.24Q220.42-18.92 220.8-19.62 221.18-20.31 221.53-20.94 221.88-21.56 222.18-22.05 222.47-22.53 222.67-22.8L222.67-22.8Q223.18-23.56 223.78-24.22 224.37-24.88 225.11-25.35 225.84-25.83 226.72-26.1 227.6-26.37 228.65-26.37L228.65-26.37Q229.36-26.37 230.14-26.18 230.92-26 231.53-25.61L231.53-25.61 230.75-19.09Q230.28-19.21 229.55-19.25 228.82-19.29 228.31-19.29L228.31-19.29Q226.91-19.29 225.74-18.93 224.57-18.58 223.59-17.96 222.62-17.33 221.81-16.48 221.01-15.63 220.35-14.65L220.35-14.65 220.35 0 213.14 0ZM236.85 0L236.85-39.11 244.05-39.11 244.05 0 236.85 0ZM262.51 0L253.94 0 245.25-13.5 254.91-25.73 261.82-25.73 252.18-14.55 262.51 0Z" opacity="1" transform="matrix(1,0,0,1,0,0)" fill="#ffffff" class="wordmark-text-0" data-fill-palette-color="primary" id="text-0"></path></svg></g></svg></g></svg></g></svg></g><g><svg viewBox="0 0 171.7337707319357 124.26999117704328" height="124.26999117704328" width="171.7337707319357"><g><svg xmlns="http://www.w3.org/2000/svg" xmlns:xlink="http://www.w3.org/1999/xlink" version="1.1" x="0" y="0" viewBox="0 13.818999999999999 100 72.36199999999998" enable-background="new 0 0 100 100" xml:space="preserve" height="124.26999117704328" width="171.7337707319357" class="icon-icon-0" data-fill-palette-color="accent" id="icon-0"><g fill="#00b8ff" data-fill-palette-color="accent"><path fill="#ffffff" d="M8.611 80.341H8.589c-1.516 0-2.749-1.23-2.749-2.747V25.896H1.719C0.773 25.896 0 26.669 0 27.613v56.849c0 0.946 0.773 1.719 1.719 1.719h41.975c-15.338-5.549-31.287-5.844-34.47-5.844C8.83 80.337 8.617 80.341 8.611 80.341z" data-fill-palette-color="accent"></path><path fill="#ffffff" d="M88.149 15.34c0.921 0 1.675 0.753 1.675 1.675v55.371c0 0.922-0.756 1.675-1.675 1.675 0 0-18.585-0.402-35.936 6.271V21.289C64.116 13.61 88.149 15.34 88.149 15.34z" data-fill-palette-color="accent"></path><path fill="#ffffff" d="M91.389 80.341h0.022c1.517 0 2.749-1.23 2.749-2.747V25.896h4.12c0.946 0 1.72 0.773 1.72 1.717v56.849c0 0.946-0.773 1.719-1.72 1.719H56.307c15.338-5.549 31.286-5.844 34.47-5.844C91.17 80.337 91.384 80.341 91.389 80.341z" data-fill-palette-color="accent"></path><path fill="#ffffff" d="M31.74 16.116v31.068l-6.347-6.349-6.347 6.349V15.183c-4.288-0.049-7.195 0.158-7.195 0.158-0.92 0-1.675 0.753-1.675 1.675v55.371c0 0.922 0.755 1.675 1.675 1.675 0 0 18.585-0.402 35.936 6.271V21.289C43.46 18.499 37.534 16.956 31.74 16.116z" data-fill-palette-color="accent"></path><path fill="#ffffff" d="M25.393 35.328l3.667 3.667V14.359c-2.663-0.387-5.274-0.516-7.336-0.54v25.177L25.393 35.328z" data-fill-palette-color="accent"></path></g></svg></g></svg></g></svg></g><defs></defs></svg><rect width="395.52" height="84.51086058597143" fill="none" stroke="none" visibility="hidden"></rect></g></svg></g></svg>